<svg width="800" height="200" viewBox="0 0 800 200" xmlns="http://www.w3.org/2000/svg">
  <defs>
    <filter id="bannerGlow" x="-20%" y="-20%" width="140%" height="140%">
      <feGaussianBlur stdDeviation="6" result="blur" />
      <feMerge>
        <feMergeNode in="blur" />
        <feMergeNode in="SourceGraphic" />
      </feMerge>
    </filter>
  </defs>

  <rect width="800" height="200" fill="#1e1e2e" />

  <g transform="translate(40, 30) scale(0.25)">
    <g transform="translate(100, 30) scale(3.12)" filter="url(#bannerGlow)">
      <path d="M 50 15 A 8 8 0 0 0 42 23 C 25 28 15 50 15 70 L 10 90 L 90 90 L 85 70 C 85 50 75 28 58 23 A 8 8 0 0 0 50 15 Z" 
            fill="none" stroke="#cba6f7" stroke-width="10" stroke-linejoin="round" />
      <path d="M 40 92 A 10 10 0 0 0 60 92 Z" 
            fill="none" stroke="#cba6f7" stroke-width="10" />
    </g>
    <line x1="256" y1="318" x2="256" y2="350" stroke="#cba6f7" stroke-width="10" filter="url(#bannerGlow)"/>
    <g filter="url(#bannerGlow)">
      <path d="M 256 350 L 296 390 L 296 480 L 216 480 L 216 390 Z" 
            fill="none" stroke="#cba6f7" stroke-width="12" stroke-linejoin="round"/>
      <circle cx="256" cy="385" r="5" fill="#cba6f7" />
      <text x="256" y="455" fill="#cba6f7" font-family="Inter, Nunito, system-ui, sans-serif" font-size="64" font-weight="bold" text-anchor="middle">$</text>
    </g>
  </g>

  <line x1="210" y1="40" x2="210" y2="160" stroke="#313244" stroke-width="2" />
  <line x1="240" y1="120" x2="380" y2="120" stroke="#313244" stroke-width="1" /> <text x="240" y="100" fill="#cba6f7" font-family="Inter, Nunito, system-ui, sans-serif" font-size="56" font-weight="bold">PriceBell</text>
  <text x="240" y="150" fill="#6c7086" font-family="Inter, Nunito, system-ui, sans-serif" font-size="20">Track prices. Get notified. Never miss a deal.</text>
</svg>
