<svg width="24" height="24" viewBox="0 0 24 24" xmlns="http://www.w3.org/2000/svg">
  <path d="M12 4C8.686 4 6 6.686 6 10C6 16 3 18 3 18H21C21 18 18 16 18 10C18 6.686 15.314 4 12 4Z" stroke="#cdd6f4" stroke-width="2" fill="none" stroke-linecap="round" stroke-linejoin="round"/>
  <path d="M11 18V19C11 19.552 11.448 20 12 20C12.552 20 13 19.552 13 19V18" stroke="#cdd6f4" stroke-width="2" fill="none" stroke-linecap="round"/>
  <path d="M3 8L1 9M3 12L1 11" stroke="#f38ba8" stroke-width="2" stroke-linecap="round"/>
  <path d="M21 8L23 9M21 12L23 11" stroke="#f38ba8" stroke-width="2" stroke-linecap="round"/>
  <circle cx="19" cy="5" r="3" fill="#f38ba8"/>
</svg>
